<?xml version="1.0" encoding="UTF-8" standalone="no"?>
<svg
   width="1110.1885"
   height="649.0675"
   viewBox="0 0 1110.1885 649.0675"
   version="1.1"
   xml:space="preserve"
   style="clip-rule:evenodd;fill-rule:evenodd;stroke-linejoin:round;stroke-miterlimit:2"
   id="svg10"
   sodipodi:docname="2025_logo_idev.svg"
   inkscape:version="1.4 (86a8ad7, 2024-10-11)"
   xmlns:inkscape="http://www.inkscape.org/namespaces/inkscape"
   xmlns:sodipodi="http://sodipodi.sourceforge.net/DTD/sodipodi-0.dtd"
   xmlns="http://www.w3.org/2000/svg"
   xmlns:svg="http://www.w3.org/2000/svg"
   xmlns:serif="http://www.serif.com/"><defs
   id="defs10" /><sodipodi:namedview
   id="namedview10"
   pagecolor="#ffffff"
   bordercolor="#000000"
   borderopacity="0.25"
   inkscape:showpageshadow="2"
   inkscape:pageopacity="0.0"
   inkscape:pagecheckerboard="0"
   inkscape:deskcolor="#d1d1d1"
   inkscape:zoom="1.10625"
   inkscape:cx="554.57627"
   inkscape:cy="324.97175"
   inkscape:window-width="1920"
   inkscape:window-height="1129"
   inkscape:window-x="1912"
   inkscape:window-y="-8"
   inkscape:window-maximized="1"
   inkscape:current-layer="svg10" />
    <g
   transform="matrix(0.972874,0,0,0.972874,167.21968,-161.73641)"
   id="g10">
        <g
   id="g9">
            <g
   id="g8">
                <path
   d="m 667.977,502.399 -46.072,-27.59 14.542,-42.849 29.9,-20.776 14.197,-57.603 35.993,-1.077 z m 117.751,-197.496 41.909,-48.41 2.462,-90.247 85.051,9.56 54.111,49.643 -67.286,124.4 -68.992,104.616 15.666,74.653 35.766,64.815 50.984,30.487 -54.992,49.127 -62.546,42.93 -53.05,116.934 -51.378,-57.187 11.602,-177.141 106.125,-294.18 z m -142.826,34.932 5.417,-19.136 -5.689,-21.176 33.002,17.741 24.059,12.904 -27.148,12.069 z"
   style="fill:#00324f"
   id="path1" />
                <g
   id="Capa-7"
   serif:id="Capa 7">
                    <g
   id="g4">
                        <g
   id="g3">
                            <g
   id="g2">
                                <path
   d="M 649.854,601.432 741.958,317.903 H 811.16 L 680.721,680.343 H 619.734 L 489.793,317.903 h 68.953 z"
   style="fill:#00324f"
   id="path2" />
                            </g>
                        </g>
                    </g>
                </g>
                <g
   transform="matrix(1.05537,0,0,1.05537,-3670.5,-1333.65)"
   id="g7">
                    <g
   transform="translate(30.1927)"
   id="g5">
                        <rect
   x="3284.8701"
   y="1564.91"
   width="59.125999"
   height="343.42599"
   style="fill:#00324f;fill-rule:nonzero"
   id="rect4" />
                    </g>
                    <g
   transform="translate(8.76562)"
   id="g6">
                        <path
   d="m 3501.86,1908.33 h -73.35 l 0.47,-46.82 h 72.88 c 21.3,0 39.13,-4.64 53.49,-13.93 14.36,-9.29 25.2,-22.59 32.53,-39.89 7.33,-17.31 11,-37.91 11,-61.82 v -18.74 c 0,-18.5 -2.08,-34.89 -6.25,-49.19 -4.17,-14.29 -10.29,-26.34 -18.37,-36.14 -8.08,-9.8 -18,-17.23 -29.74,-22.27 -11.74,-5.04 -25.21,-7.56 -40.4,-7.56 h -77.02 v -47.06 h 77.02 c 22.77,0 43.6,3.82 62.47,11.46 18.87,7.64 35.17,18.62 48.91,32.92 13.73,14.31 24.31,31.43 31.75,51.38 7.43,19.95 11.15,42.26 11.15,66.94 v 18.26 c 0,24.62 -3.72,46.91 -11.15,66.89 -7.44,19.98 -18.06,37.08 -31.86,51.31 -13.8,14.22 -30.29,25.16 -49.45,32.8 -19.16,7.64 -40.52,11.46 -64.08,11.46 z m -40.56,-343.42 v 343.42 h -59.22 v -343.42 z"
   style="fill:#00324f;fill-rule:nonzero"
   id="path5" />
                    </g>
                    <path
   d="m 3926.84,1861.51 v 46.82 h -182.29 v -46.82 z m -165.64,-296.6 v 343.42 h -59.21 v -343.42 z m 141.76,143.49 v 46.05 h -158.41 v -46.05 z m 22.65,-143.49 v 47.06 h -181.06 v -47.06 z"
   style="fill:#00324f;fill-rule:nonzero"
   id="path6" />
                </g>
            </g>
        </g>
    </g>
</svg>
